<?xml version="1.0" standalone="no"?><!DOCTYPE svg PUBLIC "-//W3C//DTD SVG 1.1//EN" "http://www.w3.org/Graphics/SVG/1.1/DTD/svg11.dtd"><svg t="1581265202530" class="icon" viewBox="0 0 1024 1024" version="1.1" xmlns="http://www.w3.org/2000/svg" p-id="44359" xmlns:xlink="http://www.w3.org/1999/xlink" width="200" height="200"><defs><style type="text/css"></style></defs><path d="M488.85 128h46.3l16.8 96.9H472.05zM683.95 167.85l40.1 23.2-33.9 92.25-69.2-39.9zM832.95 299.95l23.2 40.1L780.6 403l-39.9-69.15zM896 488.85v46.3l-96.9 16.8V472.05zM856.15 683.95l-23.2 40.1-92.25-33.9 39.9-69.2zM724.05 832.95l-40.1 23.2-63-75.55 69.2-39.9zM535.15 896h-46.3l-16.8-96.9h79.9zM340.05 856.15l-40.1-23.2 33.9-92.25 69.15 39.9zM191.05 724.05l-23.2-40.1 75.55-63 39.9 69.2zM128 535.15v-46.3l96.9-16.8v79.9zM167.85 340.05l23.2-40.1 92.25 33.9L243.4 403zM299.95 191.05l40.1-23.2L403 243.4l-69.15 39.9z" fill="#455A64" p-id="44360"></path><path d="M656.6 229.5c-38.85-19.95-82.4-32.1-128.5-34.4-5.35-0.25-10.7-0.4-16.1-0.4-5.4 0-10.75 0.15-16.1 0.4-46.1 2.3-89.65 14.45-128.5 34.4-9.55 4.9-18.8 10.25-27.75 16.05-18.8 12.2-36.25 26.3-52 42.1a319.325 319.325 0 0 0-42.1 52c-5.8 8.95-11.15 18.2-16.05 27.75-19.95 38.85-32.1 82.4-34.4 128.5-0.25 5.35-0.4 10.7-0.4 16.1 0 5.4 0.15 10.75 0.4 16.1 2.3 46.1 14.45 89.65 34.4 128.5 4.9 9.55 10.25 18.8 16.05 27.75 12.2 18.8 26.3 36.25 42.1 52 15.8 15.8 33.2 29.9 52 42.1 8.95 5.8 18.2 11.15 27.75 16.05 38.85 19.95 82.4 32.1 128.5 34.4 5.35 0.25 10.7 0.4 16.1 0.4s10.75-0.15 16.1-0.4c46.1-2.3 89.65-14.45 128.5-34.4 9.55-4.9 18.8-10.25 27.75-16.05 18.8-12.2 36.25-26.3 52-42.1 15.8-15.8 29.9-33.2 42.1-52 5.8-8.95 11.15-18.2 16.05-27.75 19.95-38.85 32.1-82.4 34.4-128.5 0.25-5.35 0.4-10.7 0.4-16.1 0-5.4-0.15-10.75-0.4-16.1-2.3-46.1-14.45-89.65-34.4-128.5-4.9-9.55-10.25-18.8-16.05-27.75-12.2-18.8-26.3-36.25-42.1-52a319.325 319.325 0 0 0-52-42.1c-8.95-5.8-18.25-11.15-27.75-16.05zM512 299.15c58.75 0 112 23.8 150.5 62.35 38.5 38.5 62.35 91.75 62.35 150.5s-23.8 112-62.35 150.5c-38.5 38.5-91.75 62.35-150.5 62.35S400 701 361.5 662.5s-62.35-91.75-62.35-150.5S322.95 400 361.5 361.5c38.5-38.5 91.7-62.35 150.5-62.35z" fill="#90A4AE" p-id="44361"></path><path d="M639.75 384.25c-32.7-32.7-77.85-52.9-127.75-52.9-49.9 0-95.05 20.2-127.75 52.9S331.35 462.1 331.35 512c0 49.9 20.2 95.05 52.9 127.75s77.85 52.9 127.75 52.9c49.9 0 95.05-20.2 127.75-52.9s52.9-77.85 52.9-127.75c0-49.9-20.2-95.05-52.9-127.75zM512 431.55c22.2 0 42.3 9 56.9 23.55 14.55 14.55 23.55 34.65 23.55 56.9 0 22.2-9 42.3-23.55 56.9-14.55 14.55-34.65 23.55-56.9 23.55-22.2 0-42.3-9-56.9-23.55-14.55-14.55-23.55-34.65-23.55-56.9 0-22.2 9-42.3 23.55-56.9 14.6-14.55 34.7-23.55 56.9-23.55z" fill="#455A64" p-id="44362"></path></svg>