<svg id="Capa_1" enable-background="new 0 0 512 512" height="512" viewBox="0 0 512 512" width="512" xmlns="http://www.w3.org/2000/svg"><g><path d="m336.649 181.873v50.04l74.357-.001v-50.039l-37.178-20.016z" fill="#87a0af"/><path d="m100.994 181.873v50.04h74.357v-50.04l-37.179-20.016z" fill="#b4d2d7"/><path d="m411.006 155.006c0-85.607-69.398-155.006-155.006-155.006l-20.016 39 20.016 35.357c44.47 0 80.649 36.179 80.649 80.649v26.867h74.357z" fill="#b4d2d7"/><path d="m175.351 155.006c0-44.47 36.179-80.649 80.649-80.649v-74.357c-85.608 0-155.006 69.399-155.006 155.006v26.867h74.357z" fill="#e1ebf0"/><path d="m256 213.476-20.016 146.857 20.016 151.667c113.66 0 202.845-31.893 202.845-31.893v-234.738s-89.185-31.893-202.845-31.893z" fill="#ffb655"/><path d="m53.155 245.369v234.738s89.186 31.893 202.845 31.893v-298.524c-113.66 0-202.845 31.893-202.845 31.893z" fill="#ffda44"/><path d="m241 361h30v62.821h-30z" fill="#ff7c48"/><path d="m256 286.655-20.016 46.867 20.016 46.867c25.884 0 46.867-20.983 46.867-46.867s-20.983-46.867-46.867-46.867z" fill="#ff7c48"/><path d="m209.133 333.522c0 25.884 20.983 46.867 46.867 46.867v-93.734c-25.884 0-46.867 20.983-46.867 46.867z" fill="#ffb655"/></g></svg>